<?xml version="1.0" encoding="utf-8"?>
<svg xmlns="http://www.w3.org/2000/svg" xmlns:xlink="http://www.w3.org/1999/xlink" style="margin: auto; background: none; display: block; shape-rendering: auto;" width="241px" height="241px" viewBox="0 0 100 100" preserveAspectRatio="xMidYMid">
<g transform="rotate(0 50 50)">
  <rect x="45.5" y="27.5" rx="4.5" ry="4.5" width="9" height="9" fill="#ff524b">
    <animate attributeName="opacity" values="1;0" keyTimes="0;1" dur="0.5847953216374269s" begin="-0.5198180636777128s" repeatCount="indefinite"></animate>
  </rect>
</g><g transform="rotate(40 50 50)">
  <rect x="45.5" y="27.5" rx="4.5" ry="4.5" width="9" height="9" fill="#ff524b">
    <animate attributeName="opacity" values="1;0" keyTimes="0;1" dur="0.5847953216374269s" begin="-0.4548408057179986s" repeatCount="indefinite"></animate>
  </rect>
</g><g transform="rotate(80 50 50)">
  <rect x="45.5" y="27.5" rx="4.5" ry="4.5" width="9" height="9" fill="#ff524b">
    <animate attributeName="opacity" values="1;0" keyTimes="0;1" dur="0.5847953216374269s" begin="-0.3898635477582845s" repeatCount="indefinite"></animate>
  </rect>
</g><g transform="rotate(120 50 50)">
  <rect x="45.5" y="27.5" rx="4.5" ry="4.5" width="9" height="9" fill="#ff524b">
    <animate attributeName="opacity" values="1;0" keyTimes="0;1" dur="0.5847953216374269s" begin="-0.3248862897985704s" repeatCount="indefinite"></animate>
  </rect>
</g><g transform="rotate(160 50 50)">
  <rect x="45.5" y="27.5" rx="4.5" ry="4.5" width="9" height="9" fill="#ff524b">
    <animate attributeName="opacity" values="1;0" keyTimes="0;1" dur="0.5847953216374269s" begin="-0.2599090318388564s" repeatCount="indefinite"></animate>
  </rect>
</g><g transform="rotate(200 50 50)">
  <rect x="45.5" y="27.5" rx="4.5" ry="4.5" width="9" height="9" fill="#ff524b">
    <animate attributeName="opacity" values="1;0" keyTimes="0;1" dur="0.5847953216374269s" begin="-0.19493177387914226s" repeatCount="indefinite"></animate>
  </rect>
</g><g transform="rotate(240 50 50)">
  <rect x="45.5" y="27.5" rx="4.5" ry="4.5" width="9" height="9" fill="#ff524b">
    <animate attributeName="opacity" values="1;0" keyTimes="0;1" dur="0.5847953216374269s" begin="-0.1299545159194282s" repeatCount="indefinite"></animate>
  </rect>
</g><g transform="rotate(280 50 50)">
  <rect x="45.5" y="27.5" rx="4.5" ry="4.5" width="9" height="9" fill="#ff524b">
    <animate attributeName="opacity" values="1;0" keyTimes="0;1" dur="0.5847953216374269s" begin="-0.0649772579597141s" repeatCount="indefinite"></animate>
  </rect>
</g><g transform="rotate(320 50 50)">
  <rect x="45.5" y="27.5" rx="4.5" ry="4.5" width="9" height="9" fill="#ff524b">
    <animate attributeName="opacity" values="1;0" keyTimes="0;1" dur="0.5847953216374269s" begin="0s" repeatCount="indefinite"></animate>
  </rect>
</g>
<!-- [ldio] generated by https://loading.io/ --></svg>